<?xml version="1.0" standalone="no"?>
<!DOCTYPE svg PUBLIC "-//W3C//DTD SVG 20010904//EN" "http://www.w3.org/TR/2001/REC-SVG-20010904/DTD/svg10.dtd">
<svg version="1" xmlns="http://www.w3.org/2000/svg" width="1999.9pt" height="194.4pt" viewBox="0 0 1999.905991 194.376859" preserveAspectRatio="xMidYMid meet">
    <metadata>
Created by potrace 1.12, written by Peter Selinger 2001-2015
</metadata>
    <g transform="translate(-0.1,195.5) scale(0.1,-0.1)" fill="#fccc95" stroke="none">
        <path d="M 1065 1949 c -52 -13 -127 -62 -159 -104 c -65 -85 -88 -197 -66 -324 c 7 -40 10 -75 7 -78 c -3 -3 -25 11 -49 30 c -53 43 -142 89 -223 113 c -46 15 -93 19 -205 19 c -163 0 -189 -8 -272 -83 c -119 -108 -120 -334 0 -415 c 74 -51 162 -60 232 -24 c 54 26 87 73 96 133 c 17 116 -88 200 -186 149 c -32 -16 -44 -45 -38 -91 c 3 -27 6 -29 43 -29 c 38 0 40 2 43 32 c 5 46 23 58 55 33 c 53 -42 44 -134 -17 -171 c -105 -64 -236 35 -236 178 c 1 94 75 196 167 227 c 129 44 359 -7 520 -115 c 69 -46 99 -75 157 -154 c 29 -38 76 -95 104 -126 c 50 -54 51 -58 41 -89 c -8 -20 -9 -63 -5 -115 c 5 -67 3 -85 -9 -95 c -9 -7 -56 -63 -105 -125 c -49 -62 -115 -132 -146 -155 c -152 -115 -403 -179 -544 -140 c -66 18 -125 64 -151 116 c -55 115 -23 245 74 293 c 61 30 107 23 154 -24 c 45 -45 45 -90 2 -140 c -38 -43 -49 -44 -49 -6 c 0 44 -30 76 -64 67 c -61 -15 -51 -100 17 -132 c 41 -19 102 -6 144 30 c 25 22 28 31 28 89 c 0 51 -5 71 -24 99 c -77 112 -209 122 -319 23 c -76 -69 -98 -148 -67 -251 c 32 -108 111 -189 210 -215 c 59 -16 259 -13 330 6 c 76 20 194 75 258 121 c 47 34 49 35 43 13 c -3 -13 -11 -64 -17 -114 c -14 -106 -3 -173 39 -250 c 93 -170 361 -195 455 -43 c 83 133 19 295 -123 313 c -77 10 -141 -46 -142 -122 c -1 -86 57 -136 110 -96 c 34 25 39 49 15 75 c -13 15 -26 19 -50 15 c -38 -7 -38 -6 -18 33 c 10 19 27 32 50 39 c 86 23 154 -38 142 -129 c -19 -145 -223 -188 -355 -75 c -22 19 -47 53 -56 76 c -22 55 -23 160 -1 235 c 33 117 172 344 210 344 c 8 0 35 -11 61 -25 c 34 -18 62 -25 104 -25 c 49 0 65 5 113 37 c 30 20 61 47 68 60 c 7 14 22 30 34 36 c 15 9 372 12 1430 13 c 776 1 1433 -1 1461 -3 c 51 -5 52 -5 70 -51 c 54 -145 176 -232 324 -232 c 62 0 85 5 135 29 c 99 47 170 130 209 245 c 6 19 51 19 2203 12 c 1207 -3 2199 -9 2204 -12 c 5 -3 9 -14 9 -24 c 0 -54 87 -208 151 -267 c 40 -37 141 -93 197 -109 c 63 -19 188 -20 257 -3 c 78 18 162 68 227 132 c 64 64 89 107 123 207 l 22 65 l 59 6 c 78 9 3967 11 4112 2 c 92 -5 115 -9 119 -22 c 27 -93 114 -195 202 -238 c 48 -24 68 -28 141 -28 c 77 1 91 4 148 34 c 80 43 145 115 173 190 l 21 58 l 111 6 c 62 4 738 7 1502 7 l 1390 0 l 29 -46 c 18 -28 48 -56 80 -75 c 45 -27 59 -30 117 -27 c 52 3 75 9 108 31 c 51 34 62 30 130 -55 c 235 -290 204 -622 -61 -645 c -104 -10 -184 39 -208 127 c -24 89 52 167 135 140 c 67 -22 85 -84 38 -132 l -27 -28 l 37 0 c 89 0 92 147 4 200 c -113 69 -269 -65 -239 -205 c 24 -113 99 -184 205 -192 c 195 -16 327 122 327 341 c 0 39 -5 88 -11 109 c -6 22 -8 42 -4 45 c 3 4 27 -6 53 -21 c 165 -98 284 -137 422 -137 c 187 0 314 77 356 216 c 29 98 14 192 -43 255 c -116 128 -295 103 -359 -50 c -27 -65 -9 -126 49 -161 c 35 -22 106 -27 138 -10 c 30 17 51 64 39 94 c -23 61 -107 34 -97 -31 c 8 -44 -12 -43 -52 2 c -42 49 -43 104 -2 145 c 57 58 133 52 197 -15 c 138 -143 25 -372 -194 -392 c -112 -10 -294 43 -418 122 c -78 50 -120 91 -193 189 c -38 50 -85 107 -105 125 l -36 35 l 0 106 c 0 102 1 108 26 131 c 14 13 63 71 109 129 c 90 114 140 157 255 218 c 151 81 308 109 427 77 c 88 -24 154 -85 177 -164 c 23 -77 20 -109 -14 -167 c -35 -63 -82 -94 -139 -94 c -76 0 -120 40 -121 108 c 0 35 6 49 30 74 c 38 38 54 32 58 -20 c 3 -34 7 -43 27 -48 c 62 -15 89 57 41 109 c -31 34 -68 43 -116 28 c -58 -17 -90 -61 -90 -122 c 0 -216 297 -256 395 -54 c 24 48 27 64 23 118 c -12 139 -54 203 -174 259 c -67 32 -72 33 -199 32 c -157 -1 -244 -25 -375 -104 c -91 -54 -104 -59 -96 -32 c 3 9 10 54 16 100 c 9 69 8 93 -5 144 c -24 94 -63 158 -118 195 c -162 108 -345 59 -402 -106 c -21 -62 -19 -89 10 -148 c 44 -89 144 -135 212 -99 c 62 31 93 120 63 177 c -17 31 -29 39 -64 39 l -30 0 l 27 -28 c 86 -89 -42 -195 -136 -112 c -56 49 -54 118 5 186 c 55 63 120 77 216 49 c 166 -50 218 -247 121 -455 c -59 -126 -156 -260 -189 -260 c -10 0 -40 11 -67 26 c -37 19 -65 25 -112 25 c -70 1 -105 -19 -173 -95 l -36 -41 l -1501 -3 c -1446 -3 -1501 -3 -1507 15 c -32 95 -104 177 -194 221 c -48 23 -67 27 -145 27 c -79 -1 -97 -4 -148 -30 c -73 -36 -150 -119 -174 -186 l -18 -49 l -2147 0 l -2148 0 l 0 23 c -1 71 -103 235 -188 302 c -93 74 -144 89 -302 89 c -125 1 -139 -1 -190 -25 c -127 -60 -242 -191 -281 -321 l -21 -68 l -2203 0 l -2203 0 l -18 53 c -27 75 -119 166 -199 196 c -86 33 -199 27 -280 -14 c -70 -36 -136 -107 -166 -180 l -23 -55 l -1471 0 l -1472 0 l -39 52 c -51 66 -92 88 -169 88 c -46 0 -74 -7 -115 -27 l -54 -27 l -52 58 c -66 72 -150 236 -169 329 c -32 159 34 288 168 333 c 98 33 194 -5 246 -97 c 30 -55 24 -88 -24 -136 c -45 -45 -99 -46 -144 -4 c -38 35 -40 54 -7 45 c 49 -12 89 34 66 76 c -17 31 -82 28 -109 -6 c -24 -31 -28 -105 -7 -142 c 18 -33 66 -62 101 -62 c 73 1 164 73 184 146 c 11 41 1 106 -23 153 c -18 34 -72 84 -112 104 c -41 21 -119 28 -169 16 z m 9140 -584 c 76 -38 162 -124 198 -199 c 37 -76 40 -110 8 -114 c -49 -7 -69 7 -111 77 c -77 133 -210 195 -349 161 c -89 -21 -201 -120 -226 -200 c -10 -33 -22 -40 -74 -40 l -43 0 l 6 33 c 21 110 120 228 239 287 c 60 29 66 30 177 28 c 105 -3 120 -6 175 -33 z m -5329 -110 c 63 -18 126 -72 164 -139 c 17 -28 30 -54 30 -58 c 0 -5 -18 -8 -39 -8 c -30 0 -41 5 -46 19 c -11 35 -100 109 -146 121 c -92 25 -181 -9 -243 -91 c -29 -40 -42 -49 -66 -49 c -35 0 -37 10 -11 66 c 53 116 218 181 357 139 z m 10399 -19 c 77 -38 128 -94 149 -163 c 7 -21 4 -23 -27 -23 c -31 0 -40 6 -71 50 c -46 63 -101 92 -176 92 c -73 0 -126 -27 -182 -92 c -35 -41 -49 -50 -75 -50 c -18 0 -33 4 -33 8 c 0 4 15 32 33 62 c 83 137 240 185 382 116 z m -10206 -332 c 10 -9 -35 -87 -73 -126 c -64 -67 -125 -92 -221 -93 c -86 0 -117 11 -186 67 c -37 30 -89 113 -89 142 c 0 10 9 16 24 16 c 17 0 38 -15 67 -50 c 75 -88 148 -118 244 -98 c 49 10 91 45 170 139 c 14 18 46 19 64 3 z m 5369 -11 c 2 -12 -10 -51 -27 -87 c -40 -83 -123 -166 -210 -209 c -62 -30 -72 -32 -177 -32 c -107 0 -112 1 -186 38 c -101 49 -167 122 -207 227 l -29 75 l 40 3 c 56 4 64 0 93 -58 c 37 -72 88 -125 152 -157 c 72 -35 183 -37 256 -5 c 63 28 141 104 173 167 c 33 68 31 66 79 63 c 33 -2 41 -7 43 -25 z m 4506 -20 c 52 -82 120 -123 203 -123 c 65 0 121 30 186 100 c 54 59 83 73 93 46 c 7 -18 -28 -86 -67 -130 c -101 -115 -305 -118 -417 -7 c -42 43 -86 117 -78 136 c 11 30 54 17 80 -22 z" />
    </g>
</svg>