<svg id="svg" xmlns="http://www.w3.org/2000/svg" xmlns:xlink="http://www.w3.org/1999/xlink" width="400" height="400" viewBox="0, 0, 400,400">
    <g id="svgg">
        <path id="path0" d="M199.616 11.185 C 196.444 13.039,189.375 20.189,189.375 21.544 C 189.375 24.163,193.063 24.392,196.160 21.965 C 202.600 16.919,206.006 18.488,200.424 23.930 C 193.620 30.561,191.120 36.460,192.745 42.048 C 198.263 61.027,233.750 57.250,233.750 37.683 C 233.750 28.943,228.579 23.171,220.719 23.139 C 209.083 23.091,206.499 36.176,217.487 39.503 C 219.956 40.251,214.716 42.188,210.225 42.188 C 200.434 42.188,199.242 36.902,206.674 26.452 C 214.692 15.178,210.032 5.099,199.616 11.185 M249.628 44.016 C 248.564 44.479,246.018 46.002,243.970 47.400 C 232.874 54.974,217.813 58.750,198.700 58.750 L 188.149 58.750 187.748 60.347 C 184.899 71.700,231.909 69.493,250.797 57.387 C 261.623 50.449,260.641 39.221,249.628 44.016 M150.611 52.639 C 136.675 57.504,129.375 68.271,129.375 83.962 C 129.375 96.992,133.323 104.569,155.803 134.688 C 167.147 149.887,169.519 160.522,165.049 176.147 C 162.825 183.921,162.847 184.868,165.178 181.760 C 176.480 166.690,174.720 151.560,158.804 126.981 C 147.399 109.368,139.804 92.294,139.814 84.287 C 139.831 69.894,155.838 58.326,169.484 62.846 C 181.247 66.741,187.278 85.479,180.001 95.524 C 177.828 98.524,177.375 98.665,176.307 96.668 C 172.794 90.105,161.872 93.195,161.876 100.750 C 161.882 113.223,183.544 112.591,189.527 99.944 C 201.706 74.203,176.525 43.594,150.611 52.639 M259.309 60.917 C 258.070 61.374,255.656 62.753,253.944 63.983 C 244.405 70.836,229.114 74.793,209.688 75.435 C 198.665 75.799,197.500 76.085,197.500 78.429 C 197.500 91.823,258.907 83.143,266.272 68.708 C 269.597 62.189,266.196 58.383,259.309 60.917 M269.996 78.709 C 267.825 79.369,264.419 81.169,262.188 82.835 C 253.601 89.246,238.853 93.036,220.066 93.660 C 207.046 94.092,205.503 94.536,207.249 97.344 C 213.808 107.885,260.965 102.802,274.029 90.146 C 280.656 83.726,278.025 76.267,269.996 78.709 M293.407 95.639 C 285.752 97.160,276.875 105.698,276.875 111.542 C 276.875 113.567,276.926 113.557,280.463 110.842 C 295.383 99.390,314.229 102.617,318.513 117.356 C 321.601 127.978,315.351 135.658,284.063 159.691 C 275.760 166.068,266.385 174.719,267.053 175.387 C 267.889 176.223,310.902 148.116,317.629 142.339 C 342.756 120.756,326.338 89.101,293.407 95.639 M261.038 103.014 C 260.470 103.641,259.832 105.429,259.618 106.988 L 259.230 109.821 255.709 109.762 C 246.995 109.615,240.856 114.182,244.531 118.078 C 245.159 118.743,245.135 118.971,244.411 119.233 C 235.878 122.324,244.124 131.250,255.512 131.250 L 258.922 131.250 258.510 135.781 C 255.905 164.404,247.554 184.945,221.727 226.250 C 204.397 253.965,198.580 275.531,203.633 293.327 C 206.279 302.646,208.857 305.952,207.522 298.315 C 203.958 277.926,209.917 256.833,225.939 233.125 C 260.334 182.231,267.687 163.920,267.732 129.063 C 267.760 107.060,265.463 98.124,261.038 103.014 M257.656 111.908 C 263.814 113.618,259.115 119.639,252.557 118.442 C 246.393 117.317,245.679 113.220,251.410 111.859 C 254.305 111.172,255.027 111.178,257.656 111.908 M213.125 123.432 C 229.775 132.529,238.711 144.992,236.389 155.879 C 235.505 160.021,237.125 158.545,238.149 154.275 C 241.087 142.028,234.551 132.398,217.813 124.311 C 209.475 120.282,206.256 119.679,213.125 123.432 M256.899 122.656 C 259.686 124.062,260.117 125.115,259.075 127.969 C 258.030 130.828,245.625 126.626,245.625 123.413 C 245.625 120.933,252.558 120.467,256.899 122.656 M122.068 129.304 C 95.608 139.109,88.344 189.241,111.716 200.747 C 129.623 209.563,152.341 189.558,150.422 166.666 C 149.801 159.255,147.052 158.130,140.804 162.730 C 134.318 167.505,130.199 172.389,127.167 178.901 C 123.644 186.468,125.722 187.065,133.049 180.592 C 139.541 174.856,139.375 174.927,139.375 177.874 C 139.375 184.788,129.769 193.702,122.282 193.736 C 101.720 193.829,105.140 145.707,126.129 139.605 C 134.282 137.235,137.757 140.981,137.364 151.719 C 137.079 159.511,137.217 159.770,139.866 156.406 C 147.780 146.357,148.076 133.856,140.493 129.903 C 136.660 127.904,126.717 127.581,122.068 129.304 M203.793 131.250 C 203.775 133.085,205.695 137.535,207.489 139.815 C 208.183 140.697,208.750 142.173,208.750 143.096 C 208.750 151.258,215.508 158.366,224.539 159.703 C 226.176 159.946,227.669 160.393,227.857 160.697 C 228.489 161.719,229.137 161.263,230.191 159.054 C 234.013 151.038,230.065 144.075,218.388 138.239 C 216.298 137.194,213.275 135.337,211.669 134.111 C 210.064 132.886,208.750 132.139,208.750 132.451 C 208.750 133.491,214.268 137.894,218.192 139.985 C 225.042 143.636,229.427 148.734,229.338 152.944 C 229.304 154.580,229.255 154.610,228.557 153.438 C 226.855 150.579,220.036 144.531,216.279 142.547 C 211.235 139.882,207.208 136.211,205.288 132.527 C 204.041 130.133,203.806 129.933,203.793 131.250 M214.294 144.809 C 217.184 146.956,217.339 147.206,216.513 148.385 C 213.744 152.338,221.416 158.959,224.821 155.554 C 225.654 154.721,226.875 155.341,226.875 156.599 C 226.875 157.908,222.158 157.743,219.037 156.325 C 215.089 154.532,211.660 149.738,210.376 144.219 C 209.845 141.934,210.574 142.044,214.294 144.809 M192.188 173.465 C 189.259 176.005,183.116 178.125,178.684 178.125 C 176.042 178.125,175.625 178.295,175.625 179.375 C 175.625 180.063,175.996 180.625,176.450 180.625 C 176.904 180.625,178.423 181.903,179.827 183.465 C 182.786 186.759,183.304 186.762,190.000 183.526 L 194.063 181.563 194.380 177.995 C 194.555 176.032,195.025 174.100,195.425 173.700 C 196.134 172.991,195.890 171.227,195.089 171.273 C 194.868 171.286,193.563 172.273,192.188 173.465 M272.826 179.424 C 269.666 180.206,257.827 185.840,257.195 186.863 C 256.861 187.404,257.068 187.531,257.890 187.289 C 280.112 180.755,297.644 194.704,289.116 212.134 C 284.734 221.091,279.038 223.468,260.625 224.024 C 243.972 224.528,238.785 225.352,244.219 226.631 C 251.992 228.461,262.869 237.853,267.300 246.563 C 288.103 287.448,260.704 322.297,214.688 313.481 C 178.841 306.613,163.667 253.586,183.485 204.438 C 184.662 201.520,185.625 198.991,185.625 198.818 C 185.625 198.022,180.769 203.301,177.351 207.813 C 163.118 226.600,159.078 253.120,166.225 280.839 C 170.351 296.844,183.758 313.216,200.000 322.086 C 222.658 334.461,252.843 329.773,275.173 310.414 C 293.815 294.251,298.658 265.023,286.711 240.780 C 285.313 237.943,284.286 235.542,284.428 235.444 C 284.571 235.347,285.889 234.461,287.357 233.477 C 315.989 214.279,304.512 171.584,272.826 179.424 M311.333 181.588 C 300.884 190.381,307.978 217.090,322.189 222.461 C 336.119 227.727,361.875 217.307,361.875 206.406 C 361.875 201.359,356.248 201.939,349.141 207.717 C 334.929 219.271,321.663 215.558,320.878 199.808 C 320.037 182.917,316.891 176.912,311.333 181.588 M192.557 184.746 C 191.385 185.578,189.276 186.586,187.869 186.985 C 183.693 188.170,183.753 188.410,189.710 194.434 C 199.969 204.810,205.034 206.643,203.444 199.405 C 202.963 197.215,195.718 183.103,195.114 183.179 C 194.879 183.208,193.729 183.913,192.557 184.746 M337.315 184.552 C 325.195 188.438,328.021 206.279,340.750 206.240 C 354.731 206.196,355.966 185.885,342.097 184.101 C 340.772 183.930,338.620 184.133,337.315 184.552 M106.922 205.055 C 69.038 212.487,54.784 258.346,77.897 298.438 C 97.441 332.337,141.542 349.329,184.843 339.644 C 188.882 338.740,192.531 337.811,192.952 337.579 C 193.372 337.347,186.622 337.164,177.952 337.172 C 151.096 337.198,134.564 332.343,115.678 318.882 C 78.252 292.206,71.162 239.365,102.813 222.999 C 131.597 208.115,162.970 236.555,146.269 262.394 C 143.109 267.284,143.115 267.849,146.312 266.218 C 163.669 257.363,164.263 231.871,147.482 216.014 C 137.661 206.734,121.130 202.267,106.922 205.055 M305.625 229.356 C 298.478 230.728,290.596 234.808,293.149 235.813 C 311.692 243.115,325.797 254.829,332.807 268.750 C 351.193 305.263,319.181 330.948,252.188 333.433 C 190.923 335.706,166.324 355.593,189.478 384.131 C 194.809 390.702,199.831 394.165,196.156 388.736 C 185.046 372.326,185.963 358.035,198.534 351.655 C 205.460 348.141,234.522 344.375,254.722 344.375 C 295.326 344.375,328.002 334.851,344.229 318.288 C 366.686 295.363,359.596 247.844,331.671 234.130 C 322.795 229.771,312.905 227.959,305.625 229.356 " stroke="none" fill="#FCCC95" fill-rule="evenodd"></path>
    </g>
</svg>