<?xml version="1.0" encoding="UTF-8"?>
<svg width="166px" height="26px" viewBox="0 0 166 26" version="1.1" xmlns="http://www.w3.org/2000/svg" xmlns:xlink="http://www.w3.org/1999/xlink">
    <title>gtm</title>
    <g id="Screen-sharing" stroke="none" stroke-width="1" fill="none" fill-rule="evenodd">
        <g id="goto.com---screen_sharing---Assets" transform="translate(-1120.000000, -950.000000)" fill-rule="nonzero">
            <g id="LMI_GoToMeeting_H_Orange_HEX" transform="translate(1120.000000, 950.000000)">
                <path d="M41.4280001,11.9163863 L36.4094307,11.9163863 C36.1088071,11.8806731 35.8081264,11.9825428 35.5918665,12.1933747 C35.3756067,12.4042065 35.2671034,12.7012504 35.2968413,13.0010502 L35.2968413,13.4980784 C35.2671014,13.7978787 35.375604,14.0949238 35.5918644,14.3057561 C35.8081247,14.5165885 36.1088066,14.6184575 36.4094307,14.5827424 L39.1571406,14.5827424 L39.1571406,17.0230769 C38.2962787,17.4472673 37.3471942,17.6639742 36.3865954,17.6556824 C35.0209201,17.7191789 33.6910034,17.2102868 32.7199704,16.2526497 C31.7489374,15.2950127 31.2256683,13.9762845 31.2772999,12.6168722 C31.2412504,11.2894481 31.7474852,10.0041734 32.6803775,9.0546119 C33.6132697,8.10505041 34.8931388,7.57230656 36.2276556,7.57806196 C37.2673702,7.52973227 38.3014415,7.75582117 39.2250212,8.23340471 C39.8607859,8.52714353 40.3379436,8.48200549 40.7465547,7.91710196 L41.3144386,7.19404706 C41.5234394,6.97338755 41.6150108,6.66724391 41.5612871,6.36877798 C41.5075633,6.07031205 41.3148985,5.81482443 41.041922,5.68006196 C39.5810808,4.8390632 37.9148192,4.41678128 36.2276556,4.45997882 C31.2544339,4.45997882 27.6666667,8.16569765 27.6666667,12.6394412 C27.6666667,17.0682149 31.1865532,20.7739409 36.3183664,20.7739409 C38.3088686,20.7771842 40.2461717,20.1346208 41.8366111,18.9436408 C42.2992605,18.6400383 42.566801,18.1162415 42.5405741,17.5654063 L42.5405741,13.0010502 C42.5702554,12.701267 42.4617363,12.40426 42.2454937,12.1934421 C42.0292512,11.9826243 41.7286086,11.8807338 41.4280001,11.9163863 L41.4280001,11.9163863 Z" id="Path" fill="#53565A"></path>
                <path d="M50.6714436,8.66272588 C46.9697461,8.66272588 44.1995545,11.37422 44.1995545,14.7183298 C44.1995545,18.0850035 46.9697666,20.7739286 50.6714436,20.7739286 C54.3727877,20.7739286 57.1433379,18.0624345 57.1433379,14.7183298 C57.1433379,11.3742251 54.3727877,8.66272588 50.6714436,8.66272588 Z M50.6714436,17.9494212 C49.3521927,17.9914895 48.1393654,17.2324327 47.6061559,16.0309883 C47.0729463,14.8295439 47.3261293,13.4263008 48.2460483,12.4844452 C49.1659672,11.5425896 50.5684086,11.2507278 51.7905651,11.7467965 C53.0127216,12.2428652 53.8098567,13.4275268 53.8052367,14.7408988 C53.8301641,15.5835503 53.5109884,16.4003118 52.920522,17.0048586 C52.3300556,17.6094054 51.5186628,17.9501722 50.6714436,17.9494212 Z" id="Shape" fill="#53565A"></path>
                <path d="M67.8169125,6.65171255 L67.8169125,5.79307529 C67.8465663,5.49325016 67.7379811,5.19621894 67.5216609,4.98542408 C67.3053407,4.77462923 67.0046245,4.67281368 66.7039901,4.70857961 L55.8496292,4.70857961 C55.5511834,4.67372036 55.2531204,4.77671335 55.0406219,4.98812486 C54.8281234,5.19953637 54.7245707,5.49610465 54.7595574,5.79307529 L54.7595574,6.65171255 C54.7245639,6.94869959 54.8281075,7.24528777 55.0406012,7.45672825 C55.2530949,7.66816873 55.5511613,7.7712001 55.8496292,7.73638157 L59.4827595,7.73638157 L59.4827595,19.440669 C59.4477656,19.7376557 59.5513094,20.0342436 59.7638033,20.2456834 C59.9762973,20.4571231 60.2743639,20.5601532 60.5728313,20.5253329 L61.9350867,20.5253329 C62.2335682,20.5602121 62.5316713,20.4572014 62.7441805,20.2457475 C62.9566897,20.0342936 63.0602153,19.7376698 63.0251636,19.440669 L63.0251636,7.73638157 L66.7039901,7.73638157 C67.0046466,7.77210702 67.3053664,7.67025318 67.5216818,7.45942927 C67.7379973,7.24860535 67.8465733,6.95155403 67.8169125,6.65171255 L67.8169125,6.65171255 Z" id="Path" fill="#53565A"></path>
                <path d="M71.9050262,8.66272588 C68.2033287,8.66272588 65.4331371,11.37422 65.4331371,14.7183298 C65.4331371,18.0850035 68.2033441,20.7739286 71.9050262,20.7739286 C75.6063651,20.7739286 78.3769154,18.0624345 78.3769154,14.7183298 C78.3769154,11.3742251 75.6063651,8.66272588 71.9050262,8.66272588 Z M71.9050262,17.9494212 C70.5857753,17.9914895 69.372948,17.2324327 68.8397384,16.0309883 C68.3065288,14.8295439 68.5597119,13.4263008 69.4796309,12.4844452 C70.3995498,11.5425896 71.8019912,11.2507278 73.0241477,11.7467965 C74.2463042,12.2428652 75.0434393,13.4275268 75.0388193,14.7408988 C75.0637467,15.5835503 74.744571,16.4003118 74.1541046,17.0048586 C73.5636382,17.6094054 72.7522454,17.9501722 71.9050262,17.9494212 L71.9050262,17.9494212 Z" id="Shape" fill="#53565A"></path>
                <path d="M96.7939083,4.70857961 L95.7945627,4.70857961 C95.4775138,4.68407848 95.1855539,4.88094273 95.0909225,5.18303373 L89.5273147,17.994549 L83.9637222,5.18303373 C83.8692499,4.88082528 83.5771816,4.68388799 83.260082,4.70857961 L82.2607364,4.70857961 C82.101962,4.69369606 81.9443345,4.7468246 81.8273354,4.854658 C81.7103364,4.9624914 81.6450477,5.11481575 81.6478224,5.27347804 L80.2627164,19.8927224 C80.2283485,20.0604579 80.2773862,20.2343905 80.3944199,20.3598631 C80.5114537,20.4853356 80.6821168,20.5469458 80.8527798,20.5253329 L81.4206688,20.5253329 C81.5842151,20.5415247 81.7472759,20.4902436 81.8717635,20.383468 C81.9962512,20.2766924 82.0712634,20.1237733 82.079279,19.9604294 L83.1918683,7.30706039 L88.6190488,19.8474161 C88.7217187,20.1436403 89.0084611,20.3369685 89.3230117,20.3220435 L89.7319558,20.3220435 C90.0409095,20.3361433 90.320567,20.1411739 90.4127454,19.8474161 L95.8631146,7.30706039 L96.9756988,19.9604294 C96.9835836,20.1237611 97.0585116,20.2767095 97.1829588,20.3835036 C97.3074059,20.4902977 97.4704581,20.5415714 97.633981,20.5253329 L98.201865,20.5253329 C98.3725433,20.5469013 98.5432063,20.4852929 98.6602825,20.3598466 C98.7773588,20.2344003 98.8264947,20.060496 98.7922665,19.8927224 L97.4071605,5.27347804 C97.4098553,5.11477931 97.344494,4.96245007 97.2274392,4.85462486 C97.1103845,4.74679965 96.9527172,4.69368566 96.7939083,4.70857961 Z" id="Path" fill="#53565A"></path>
                <path d="M106.878096,9.00160784 C105.274972,8.96543688 103.725485,9.57692948 102.583067,10.6966061 C101.440649,11.8162827 100.80273,13.348653 100.814818,14.9441882 C100.814818,18.1301416 103.267145,20.7739286 107.17313,20.7739286 C108.734618,20.8135768 110.258204,20.2921896 111.46487,19.3052498 C111.62845,19.2123314 111.739736,19.0494509 111.766406,18.8639164 C111.793076,18.6783818 111.732141,18.4909901 111.601298,18.3561682 L111.419507,18.1754478 C111.204127,17.93026 110.831754,17.9001732 110.57944,18.1075725 C109.603314,18.8533366 108.40372,19.2512168 107.17313,19.2373745 C104.380067,19.2373745 102.40456,17.3845176 102.563505,14.8764812 L111.942028,14.8764812 C112.350639,14.8764812 112.60031,14.6504545 112.53243,14.2664396 C112.237063,10.6511651 109.648308,9.00160784 106.878096,9.00160784 Z M102.72246,13.5433949 C103.274236,11.7084578 104.999678,10.4741439 106.923469,10.5381569 C108.490366,10.5381569 110.261565,11.2160737 110.783753,13.5433949 L102.72246,13.5433949 Z" id="Shape" fill="#53565A"></path>
                <path d="M120.367584,9.00160784 C118.764479,8.96549831 117.215029,9.57701137 116.072627,10.696675 C114.930226,11.8163387 114.292291,13.3486731 114.304321,14.9441882 C114.304321,18.1301416 116.756986,20.7739286 120.662633,20.7739286 C122.224121,20.8135768 123.747707,20.2921896 124.954374,19.3052498 C125.117953,19.2123314 125.22924,19.0494509 125.25591,18.8639164 C125.28258,18.6783818 125.221644,18.4909901 125.090801,18.3561682 L124.909011,18.1754478 C124.69363,17.93026 124.321257,17.9001732 124.068943,18.1075725 C123.092817,18.8533366 121.893223,19.2512168 120.662633,19.2373745 C117.869571,19.2373745 115.894063,17.3845176 116.053008,14.8764812 L125.431532,14.8764812 C125.840143,14.8764812 126.089814,14.6504545 126.021933,14.2664396 C125.726556,10.6511651 123.137796,9.00160784 120.367584,9.00160784 Z M116.211948,13.5433949 C116.763809,11.7085159 118.4892,10.4742416 120.412962,10.538162 C121.979859,10.538162 123.751058,11.2160788 124.273246,13.5433949 L116.211948,13.5433949 Z" id="Shape" fill="#53565A"></path>
                <path d="M137.831603,9.25019843 L137.309421,9.25019843 C137.143357,9.23790849 136.980154,9.29822794 136.862421,9.41540843 C136.744688,9.53258893 136.684111,9.69499852 136.696507,9.8602349 L136.696507,19.9152914 C136.68022,20.0814957 136.739535,20.2462313 136.858189,20.3643292 C136.976843,20.4824271 137.142383,20.5414935 137.309421,20.5253329 L137.831603,20.5253329 C137.995506,20.5366654 138.156039,20.4752061 138.270039,20.3574809 C138.384038,20.2397556 138.439803,20.0778475 138.422338,19.9152914 L138.422338,9.8602349 C138.439801,9.69767963 138.384036,9.53577293 138.270036,9.41804886 C138.156037,9.30032479 137.995505,9.23886625 137.831603,9.25019843 L137.831603,9.25019843 Z" id="Path" fill="#53565A"></path>
                <path d="M137.559425,4.21138314 C137.038352,4.19732854 136.560488,4.49824919 136.350208,4.97285128 C136.139928,5.44745336 136.239001,6.00146519 136.600908,6.37475691 C136.962815,6.74804863 137.51567,6.86647214 137.999885,6.67442306 C138.484101,6.48237398 138.803497,6.01799961 138.808104,5.49934157 C138.822333,5.16151552 138.696877,4.83263357 138.460953,4.5892874 C138.225028,4.34594122 137.899227,4.20937145 137.559425,4.21138314 Z" id="Path" fill="#53565A"></path>
                <path d="M147.391923,9.00160784 C145.63524,8.92706635 144.034142,9.99843028 143.440913,11.6454 L143.440913,9.8602349 C143.457122,9.6939849 143.397729,9.52923845 143.279012,9.41114927 C143.160296,9.29306009 142.994708,9.2340155 142.827635,9.25019843 L142.305452,9.25019843 C142.142664,9.24277416 141.984548,9.30547175 141.871509,9.4222694 C141.758471,9.53906705 141.701462,9.69864879 141.71505,9.8602349 L141.71505,19.9152914 C141.697562,20.0777945 141.753272,20.239664 141.867203,20.357385 C141.981134,20.4751061 142.141596,20.536599 142.305452,20.5253329 L142.827635,20.5253329 C142.994709,20.5415161 143.160297,20.4824709 143.279014,20.3643805 C143.397731,20.2462901 143.457123,20.0815422 143.440913,19.9152914 L143.440913,15.0572016 C143.463425,11.419358 146.029667,10.5381518 147.278346,10.5381518 C148.709153,10.5381518 150.139622,11.396789 150.139622,14.1308573 L150.139622,19.9152914 C150.123413,20.0815364 150.182801,20.2462785 150.301511,20.3643676 C150.42022,20.4824567 150.5858,20.5415063 150.752869,20.5253329 L151.275057,20.5253329 C151.442132,20.5415161 151.60772,20.4824709 151.726437,20.3643805 C151.845153,20.2462901 151.904546,20.0815422 151.888335,19.9152914 L151.888335,14.1308573 C151.888309,10.402549 149.799225,9.00160784 147.391923,9.00160784 Z" id="Path" fill="#53565A"></path>
                <path d="M165.286733,9.25019843 L164.764545,9.25019843 C164.600657,9.23881088 164.440122,9.30026514 164.326164,9.41801474 C164.212205,9.53576435 164.156537,9.69770515 164.174149,9.8602349 L164.174149,11.4872333 C163.266051,9.90411507 161.554607,8.94830117 159.723463,9.00159765 C156.24894,9.00159765 154.069129,11.6679588 154.069129,14.8990502 C154.069129,18.1301416 156.294636,20.7739286 159.723463,20.7739286 C161.55203,20.8410185 163.266765,19.892127 164.174149,18.3110302 L164.174149,20.2541682 C164.174149,22.83008 162.493655,24.3213278 160.041343,24.3213278 C158.772169,24.3563436 157.521861,24.0098655 156.453581,23.3271082 C156.089995,23.0786757 155.817478,23.1238137 155.636026,23.5079969 L155.477081,23.7789933 C155.384782,23.9123704 155.351926,24.0777507 155.38628,24.2360406 C155.420634,24.3943306 155.51915,24.5314811 155.658538,24.6150718 C156.953782,25.4711334 158.487692,25.8982013 160.041343,25.8353231 C163.243017,25.8353231 165.899985,24.0050353 165.899985,20.3897608 L165.899985,9.86027059 C165.916204,9.69401958 165.85682,9.52926774 165.738108,9.41117124 C165.619396,9.29307474 165.453809,9.23402195 165.286733,9.25019843 Z M159.927766,19.2373745 C157.316499,19.2373745 155.794966,17.2716725 155.794966,14.8990502 C155.794966,12.5265961 157.293648,10.5381518 159.904915,10.5381518 C162.471158,10.5381518 164.196994,12.4135827 164.196994,14.8990502 C164.256031,16.0508464 163.828352,17.1747354 163.017447,17.9987655 C162.206541,18.8227955 161.08629,19.2718881 159.927766,19.2373745 L159.927766,19.2373745 Z" id="Shape" fill="#53565A"></path>
                <path d="M134.148576,9.24386667 L130.853952,9.24386667 L130.853952,6.37258471 C130.866549,6.2271006 130.812255,6.08376653 130.706287,5.98274915 C130.600318,5.88173176 130.454075,5.83389937 130.30854,5.85265608 L130.013675,5.85265608 C129.871012,5.83932436 129.72914,5.88513393 129.621528,5.97927784 C129.513915,6.07342175 129.450092,6.20756306 129.445114,6.35005647 L129.104963,9.24386667 L127.559319,9.24386667 C127.459512,9.23098027 127.35935,9.26492994 127.288203,9.33576005 C127.217055,9.40659016 127.182987,9.50627327 127.195989,9.60557765 L127.195989,10.2611855 C127.179038,10.3613147 127.211808,10.4634182 127.283947,10.5352365 C127.356086,10.6070548 127.458681,10.6397162 127.559319,10.6229016 L129.104963,10.6229016 L129.104963,17.2729878 C129.104963,19.8205443 130.550551,20.5205918 132.01689,20.5205918 L133.581435,20.5205918 C133.748478,20.5367531 133.914032,20.4777315 134.032753,20.3596919 C134.151475,20.2416523 134.210921,20.0769665 134.19481,19.9107388 L134.19481,19.5938447 C134.206125,19.430726 134.144293,19.2709905 134.025932,19.1575717 C133.907571,19.0441529 133.744824,18.9886869 133.581435,19.0060816 L132.01689,19.0060816 C131.403223,19.0060816 130.853942,18.652558 130.853942,17.4795604 L130.853942,10.6229118 L134.148566,10.6229118 C134.2484,10.6359204 134.348639,10.6020099 134.419816,10.5311484 C134.490994,10.460287 134.525021,10.3605279 134.511895,10.2611957 L134.511895,9.60558784 C134.521026,9.50718443 134.485699,9.4098379 134.415493,9.33994055 C134.345287,9.27004319 134.247475,9.23483689 134.148576,9.24386667 L134.148576,9.24386667 Z" id="Path" fill="#53565A"></path>
                <path d="M21.4647222,14.5720059 C20.3167268,13.8797814 18.8653698,13.9313575 17.769926,14.7033059 C17.5555395,14.8566061 17.2709834,14.8713779 17.0417291,14.7411078 L13.693632,12.8177145 C13.6675605,12.8027352 13.6515002,12.7750543 13.6515002,12.745098 C13.6515002,12.7151418 13.6675605,12.6874609 13.693632,12.6724816 L17.0228543,10.7599114 C17.2534264,10.6289484 17.5397494,10.6446954 17.7544122,10.8001451 C18.848872,11.5807928 20.3052837,11.6382865 21.4584562,10.9463671 C22.983455,10.0098687 23.5191162,8.05820761 22.6842023,6.48040824 C21.9251478,5.08124082 20.2830027,4.4047728 18.7521471,4.86063082 C17.2212915,5.31648885 16.2225653,6.77935525 16.3607346,8.3634098 C16.3854959,8.62388706 16.2561188,8.87499505 16.0291188,9.00704235 L12.6823744,10.9296863 C12.6563016,10.9446623 12.6241801,10.9446611 12.5981085,10.9296831 C12.5720368,10.9147051 12.5559753,10.8870255 12.5559736,10.8570698 L12.5559992,7.01018627 C12.557246,6.74747888 12.712392,6.50963907 12.9530261,6.40154157 C14.3918852,5.74313461 15.1760394,4.17679032 14.837475,2.63736414 C14.4989106,1.09793796 13.128948,0.00042243351 11.5452345,0.00042243351 C9.961521,0.00042243351 8.59122965,1.09706142 8.25220385,2.63638707 C7.91317805,4.17571272 8.69686283,5.74228963 10.1355245,6.40112353 C10.376573,6.50920383 10.5321096,6.74726403 10.5335556,7.01033922 L10.5335556,10.8570902 C10.5335539,10.8870459 10.5174924,10.9147255 10.4914207,10.9297035 C10.4653491,10.9446815 10.4332276,10.9446827 10.4071548,10.9297067 L7.06027204,9.00696078 C6.83351139,8.8753145 6.70413178,8.62469717 6.72866142,8.36460784 C6.86529335,6.79516143 5.88549175,5.34271117 4.37399289,4.87406556 C2.86249402,4.40541994 1.22694915,5.0469727 0.443435874,6.41585125 C-0.340077402,7.7847298 -0.0602455436,9.51174759 1.11593046,10.5662368 C2.29210646,11.6207261 4.04741194,11.7182911 5.33429728,10.8007059 C5.54912976,10.644927 5.83579959,10.6289766 6.06674667,10.7599522 L9.39588179,12.6724714 C9.42195328,12.6874507 9.43801367,12.7151316 9.43801367,12.7450878 C9.43801367,12.7750441 9.42195328,12.802725 9.39588179,12.8177043 L6.04777963,14.7411078 C5.81852724,14.8713783 5.53397231,14.8566064 5.31958784,14.7033059 C4.22414408,13.9313575 2.77278702,13.8797814 1.6247916,14.5720059 C0.104092744,15.5103032 -0.428424183,17.4590137 0.405383272,19.0343502 C1.1665411,20.4365971 2.81422356,21.1122985 4.34728963,20.6508943 C5.8803557,20.1894901 6.87546137,18.7183935 6.72797488,17.131451 C6.70151409,16.8696953 6.83093339,16.6166351 7.05917049,16.4838471 L10.4071548,14.5605098 C10.4332272,14.5455304 10.4653505,14.5455299 10.4914233,14.5605086 C10.5174961,14.5754872 10.533557,14.6031692 10.5335556,14.6331263 L10.5335556,18.4800098 C10.5323092,18.7427067 10.377169,18.9805369 10.1365441,19.088629 C8.69766265,19.7470198 7.91347979,21.3133674 8.25202829,22.8528108 C8.59057678,24.3922542 9.96053989,25.4898084 11.5442669,25.4898084 C13.1279939,25.4898084 14.4983059,24.3931842 14.8373439,22.8538475 C15.1763819,21.3145107 14.3926972,19.7479163 12.9540252,19.0890725 C12.7129776,18.9809912 12.5574414,18.7429317 12.5559941,18.4798569 L12.5559941,14.633111 C12.5559927,14.6031539 12.5720536,14.575472 12.5981264,14.5604933 C12.6241992,14.5455146 12.6563225,14.5455151 12.6823949,14.5604945 L16.0303792,16.4838471 C16.2586144,16.6166369 16.388033,16.8696958 16.3615748,17.131451 C16.2140883,18.7183935 17.209194,20.1894901 18.7422601,20.6508943 C20.2753261,21.1122985 21.9230086,20.4365971 22.6841664,19.0343502 C23.5179674,17.4590048 22.9854341,15.5102917 21.4647222,14.5720059 Z" id="Path" fill="#F68D2E"></path>
            </g>
        </g>
    </g>
</svg>